<?xml version="1.0" encoding="UTF-8" standalone="no"?>
<svg
   xmlns:dc="http://purl.org/dc/elements/1.1/"
   xmlns:cc="http://creativecommons.org/ns#"
   xmlns:rdf="http://www.w3.org/1999/02/22-rdf-syntax-ns#"
   xmlns:svg="http://www.w3.org/2000/svg"
   xmlns="http://www.w3.org/2000/svg"
   xmlns:sodipodi="http://sodipodi.sourceforge.net/DTD/sodipodi-0.dtd"
   xmlns:inkscape="http://www.inkscape.org/namespaces/inkscape"
   version="1.1"
   x="0px"
   y="0px"
   viewBox="-11 13 24 24"
   xml:space="preserve"
   id="svg10"
   sodipodi:docname="noun_sign_out_538366.svg"
   width="24"
   height="24"
   inkscape:version="1.0.2 (e86c870879, 2021-01-15, custom)"
   inkscape:export-filename="C:\cesium\cesium-unreal-demo-2\Plugins\cesium-unreal\Content\NounProject\noun_sign_out_538366.png"
   inkscape:export-xdpi="160"
   inkscape:export-ydpi="160"><metadata
     id="metadata16"><rdf:RDF><cc:Work
         rdf:about=""><dc:format>image/svg+xml</dc:format><dc:type
           rdf:resource="http://purl.org/dc/dcmitype/StillImage" /><dc:title></dc:title></cc:Work></rdf:RDF></metadata><defs
     id="defs14" /><sodipodi:namedview
     pagecolor="#ffffff"
     bordercolor="#666666"
     borderopacity="1"
     objecttolerance="10"
     gridtolerance="10"
     guidetolerance="10"
     inkscape:pageopacity="0"
     inkscape:pageshadow="2"
     inkscape:window-width="3558"
     inkscape:window-height="2126"
     id="namedview12"
     showgrid="false"
     inkscape:zoom="33.6"
     inkscape:cx="5.5565476"
     inkscape:cy="15"
     inkscape:window-x="-11"
     inkscape:window-y="-11"
     inkscape:window-maximized="1"
     inkscape:current-layer="svg10" /><path
     d="m 1.3,23.5 c 0,0 0,0 0,0 H -5.3 V 22 c 0,-0.3 -0.2,-0.4 -0.3,-0.4 -0.2,0 -0.5,0.2 -0.5,0.2 l -4.6,2.9 c 0,0 -0.2,0.2 -0.2,0.3 0,0.1 0,0.2 0.2,0.3 0.5,0.3 4.6,2.7 4.8,2.8 0,0 0.3,0.2 0.5,0.2 0.1,0 0.4,-0.1 0.4,-0.4 V 26.6 H 1.5 C 1.7,26.6 2,26.5 2,26.2 V 23.9 C 1.8,23.5 1.4,23.5 1.3,23.5 Z"
     id="path2"
     style="fill:#cccccc" /><path
     d="M 13,16.8 C 13,16.3 12.9,16 12.2,16 c 0,0 -1.9,0 -3,0 H 0 -1.5 c 0,0 -0.4,0 -1.2,0 -0.1,0 -0.3,0.1 -0.3,0.3 0,1.2 0,3 0,4.1 0,0.2 0.2,0.4 0.3,0.4 0.8,0 2.5,0 2.5,0 0.3,0 0.3,-0.1 0.3,-0.4 V 19 h 9.2 c 0.4,0 0.7,0.4 0.7,0.8 v 10.4 c 0,0.4 -0.3,0.7 -0.7,0.7 H 0 c 0,0 0,-1 0,-1.4 0,-0.2 -0.2,-0.3 -0.3,-0.3 -0.6,0 -1.6,0 -2.4,0 -0.1,0 -0.4,0 -0.4,0.3 0,1.1 0,3.5 0,4.2 C -3,34 -2.6,34 -2.6,34 H -1.4 0 9.3 c 0.9,0 3.1,0 3.1,0 0.4,-0.1 0.6,-0.2 0.6,-1 V 16.8 Z"
     id="path4"
     style="fill:#cccccc" /></svg>
